<?xml version="1.0" encoding="UTF-8"?>
<svg width="255px" height="47px" viewBox="0 0 255 47" version="1.1" xmlns="http://www.w3.org/2000/svg" xmlns:xlink="http://www.w3.org/1999/xlink">
    <title>logo</title>
    <g id="页面-1" stroke="none" stroke-width="1" fill="none" fill-rule="evenodd">
        <g id="logo" transform="translate(0.560000, 0.000000)" fill-rule="nonzero">
            <g id="YangLanLan" transform="translate(0.000000, 6.120000)">
                <path d="M21.24,29.88 L21.24,28.52 L17.16,28.12 C17.0975,25.71375 17.0838281,23.6492969 17.0808374,20.2481738 L17.08,17.04 L17.08,17.04 L24.52,1.84 L27.8,1.36 L27.8,7.10542736e-15 L18.44,7.10542736e-15 L18.44,1.36 L22.36,1.88 L16.2,15.4 L9.92,1.76 L13.88,1.36 L13.88,7.10542736e-15 L7.10542736e-15,7.10542736e-15 L7.10542736e-15,1.36 L2.2,1.56 L10.32,18.16 L10.3199964,18.6609475 L10.3199964,18.6609475 L10.3192128,20.9177259 C10.3163265,23.9534694 10.3028571,25.8885714 10.24,28.12 L6.2,28.52 L6.2,29.88 L21.24,29.88 Z M43.12,30.56 C45.68,30.56 47.2,29.64 48.2,27.44 L47.52,26.88 C46.76,28.08 46.32,28.4 45.72,28.4 C44.96,28.4 44.48,27.88 44.48,26.36 L44.48,15.6 C44.48,9.8 42.2,7.36 36.52,7.36 C30.32,7.36 26.84,9.76 26.52,13.52 C26.84,14.84 27.84,15.56 29.28,15.56 C30.8,15.56 32.16,14.48 32.28,11.76 L32.56,8.92 C33.16,8.8 33.68,8.76 34.24,8.76 C37.28,8.76 38.24,10 38.24,14.16 L38.24,16.6 C36.84,16.96 35.44,17.32 34.32,17.64 C27.88,19.52 25.8,21.48 25.8,25.12 C25.8,28.48 28.2,30.56 31.64,30.56 C34.84,30.56 36.36,29.32 38.4,27.08 C39,29.24 40.48,30.56 43.12,30.56 Z M34.76,27.84 C32.88,27.84 31.76,26.72 31.76,24.32 C31.76,21.4 33.24,19.52 36.04,18.36 C36.52,18.16 37.32,17.92 38.24,17.68 L38.24,26 C36.76,27.32 35.84,27.84 34.76,27.84 Z M61.08,29.88 L61.08,28.64 L58.8,28.44 C58.7628571,26.2485714 58.7257143,23.0914286 58.7205977,20.8581195 L58.72,12.64 C60.44,11.12 62.08,10.36 63.28,10.36 C65.16,10.36 66.04,11.48 66.04,14.6 L66.04,20.36 C66.04,22.68 66,26.08 65.96,28.4 L63.44,28.64 L63.44,29.88 L75.04,29.88 L75.04,28.64 L72.64,28.44 C72.5661538,26.2984615 72.5263905,23.2366864 72.5207101,20.922112 L72.52,15.08 C72.52,9.84 69.92,7.36 66.12,7.36 C63.48,7.36 61.28,8.28 58.64,11.32 L58.4,7.8 L57.84,7.4 L49.16,9.92 L49.16,10.88 L52.16,11.2 C52.24,13.12 52.28,14.44 52.28,17.04 L52.28,20.36 C52.28,22.6 52.24,26.04 52.2,28.4 L49.52,28.64 L49.52,29.88 L61.08,29.88 Z M86.64,40.24 C95.04,40.24 99.48,36.48 99.48,32 C99.48,28.4 97.12,25.92 90.68,25.92 L84.8,25.92 C82.56,25.92 81.64,25.16 81.64,23.68 C81.64,22.8 81.88,22.12 82.32,21.4 C83.64,21.96 85.28,22.28 87.2,22.28 C93.44,22.28 96.44,18.96 96.44,14.76 C96.44,13.08 96,11.6 95.08,10.4 L99.92,10.92 L99.92,7.8 L99.2,7.36 L94.08,9.4 C92.56,8.12 90.32,7.36 87.24,7.36 C80.92,7.36 77.92,10.48 77.92,14.76 C77.92,17.4 79.08,19.68 81.52,21 C79.12,23.12 78.08,24.6 78.08,26.6 C78.08,28.6 79.24,29.64 81,30.44 C78.32,31.48 77,33.04 77,34.8 C77,37.72 79.36,40.24 86.64,40.24 Z M87.2,21.04 C84.88,21.04 83.72,18.64 83.72,14.76 C83.72,10.88 85,8.56 87.24,8.56 C89.44,8.56 90.76,10.84 90.76,14.76 C90.76,18.64 89.48,21.04 87.2,21.04 Z M86.6,38.48 C82.96,38.48 80.76,36.84 80.76,33.92 C80.76,32.6 81.08,31.72 81.76,30.84 C82.9726316,31.1810526 84.041662,31.2708033 86.157469,31.279306 L90.96,31.28 C93.52,31.28 94.44,32.8 94.44,34.52 C94.44,36.84 91.88,38.48 86.6,38.48 Z" id="Yang" fill="#2F2F41"></path>
                <path d="M124.56,29.88 L124.48,20.92 L122.32,20.92 L120.32,28.32 L112,28.32 C111.931429,24.7542857 111.921633,21.1885714 111.920233,17.7488047 L111.920481,11.4318858 C111.922645,8.35768595 111.934545,5.02545455 112,1.72 L115.92,1.36 L115.92,3.55271368e-15 L101.44,3.55271368e-15 L101.44,1.36 L105.04,1.68 C105.16,5.8 105.16,9.92 105.16,14.08 L105.16,16.92 L105.159964,17.5709393 L105.159964,17.5709393 L105.15904,18.93376 C105.1552,21.7344 105.136,24.96 105.04,28.16 L101.48,28.52 L101.44,29.88 L124.56,29.88 Z M144.72,30.56 C147.28,30.56 148.8,29.64 149.8,27.44 L149.12,26.88 C148.36,28.08 147.92,28.4 147.32,28.4 C146.56,28.4 146.08,27.88 146.08,26.36 L146.08,15.6 C146.08,9.8 143.8,7.36 138.12,7.36 C131.92,7.36 128.44,9.76 128.12,13.52 C128.44,14.84 129.44,15.56 130.88,15.56 C132.4,15.56 133.76,14.48 133.88,11.76 L134.16,8.92 C134.76,8.8 135.28,8.76 135.84,8.76 C138.88,8.76 139.84,10 139.84,14.16 L139.84,16.6 C138.44,16.96 137.04,17.32 135.92,17.64 C129.48,19.52 127.4,21.48 127.4,25.12 C127.4,28.48 129.8,30.56 133.24,30.56 C136.44,30.56 137.96,29.32 140,27.08 C140.6,29.24 142.08,30.56 144.72,30.56 Z M136.36,27.84 C134.48,27.84 133.36,26.72 133.36,24.32 C133.36,21.4 134.84,19.52 137.64,18.36 C138.12,18.16 138.92,17.92 139.84,17.68 L139.84,26 C138.36,27.32 137.44,27.84 136.36,27.84 Z M162.68,29.88 L162.68,28.64 L160.4,28.44 C160.362857,26.2485714 160.325714,23.0914286 160.320598,20.8581195 L160.32,12.64 C162.04,11.12 163.68,10.36 164.88,10.36 C166.76,10.36 167.64,11.48 167.64,14.6 L167.64,20.36 C167.64,22.68 167.6,26.08 167.56,28.4 L165.04,28.64 L165.04,29.88 L176.64,29.88 L176.64,28.64 L174.24,28.44 C174.166154,26.2984615 174.126391,23.2366864 174.12071,20.922112 L174.12,15.08 C174.12,9.84 171.52,7.36 167.72,7.36 C165.08,7.36 162.88,8.28 160.24,11.32 L160,7.8 L159.44,7.4 L150.76,9.92 L150.76,10.88 L153.76,11.2 C153.84,13.12 153.88,14.44 153.88,17.04 L153.88,20.36 C153.88,22.6 153.84,26.04 153.8,28.4 L151.12,28.64 L151.12,29.88 L162.68,29.88 Z M202.28,29.88 L202.2,20.92 L200.04,20.92 L198.04,28.32 L189.72,28.32 C189.651429,24.7542857 189.641633,21.1885714 189.640233,17.7488047 L189.640481,11.4318858 C189.642645,8.35768595 189.654545,5.02545455 189.72,1.72 L193.64,1.36 L193.64,3.55271368e-15 L179.16,3.55271368e-15 L179.16,1.36 L182.76,1.68 C182.88,5.8 182.88,9.92 182.88,14.08 L182.88,16.92 L182.879964,17.5709393 L182.879964,17.5709393 L182.87904,18.93376 C182.8752,21.7344 182.856,24.96 182.76,28.16 L179.2,28.52 L179.16,29.88 L202.28,29.88 Z M222.44,30.56 C225,30.56 226.52,29.64 227.52,27.44 L226.84,26.88 C226.08,28.08 225.64,28.4 225.04,28.4 C224.28,28.4 223.8,27.88 223.8,26.36 L223.8,15.6 C223.8,9.8 221.52,7.36 215.84,7.36 C209.64,7.36 206.16,9.76 205.84,13.52 C206.16,14.84 207.16,15.56 208.6,15.56 C210.12,15.56 211.48,14.48 211.6,11.76 L211.88,8.92 C212.48,8.8 213,8.76 213.56,8.76 C216.6,8.76 217.56,10 217.56,14.16 L217.56,16.6 C216.16,16.96 214.76,17.32 213.64,17.64 C207.2,19.52 205.12,21.48 205.12,25.12 C205.12,28.48 207.52,30.56 210.96,30.56 C214.16,30.56 215.68,29.32 217.72,27.08 C218.32,29.24 219.8,30.56 222.44,30.56 Z M214.08,27.84 C212.2,27.84 211.08,26.72 211.08,24.32 C211.08,21.4 212.56,19.52 215.36,18.36 C215.84,18.16 216.64,17.92 217.56,17.68 L217.56,26 C216.08,27.32 215.16,27.84 214.08,27.84 Z M240.4,29.88 L240.4,28.64 L238.12,28.44 C238.082857,26.2485714 238.045714,23.0914286 238.040598,20.8581195 L238.04,12.64 C239.76,11.12 241.4,10.36 242.6,10.36 C244.48,10.36 245.36,11.48 245.36,14.6 L245.36,20.36 C245.36,22.68 245.32,26.08 245.28,28.4 L242.76,28.64 L242.76,29.88 L254.36,29.88 L254.36,28.64 L251.96,28.44 C251.886154,26.2984615 251.846391,23.2366864 251.84071,20.922112 L251.84,15.08 C251.84,9.84 249.24,7.36 245.44,7.36 C242.8,7.36 240.6,8.28 237.96,11.32 L237.72,7.8 L237.16,7.4 L228.48,9.92 L228.48,10.88 L231.48,11.2 C231.56,13.12 231.6,14.44 231.6,17.04 L231.6,20.36 C231.6,22.6 231.56,26.04 231.52,28.4 L228.84,28.64 L228.84,29.88 L240.4,29.88 Z" id="LanLan" fill="#E5261F"></path>
            </g>
        </g>
    </g>
</svg>