<?xml version="1.0" encoding="UTF-8"?>
<svg width="54px" height="58px" viewBox="0 0 54 58" version="1.1" xmlns="http://www.w3.org/2000/svg" xmlns:xlink="http://www.w3.org/1999/xlink">
    <title>logo-mobile</title>
    <g id="页面-1" stroke="none" stroke-width="1" fill="none" fill-rule="evenodd">
        <g id="logo-mobile" transform="translate(2.000000, 0.000000)">
            <rect id="Rectangle-6" stroke="#E5261F" stroke-width="4" x="0" y="6" width="50" height="50"></rect>
            <path d="M32.402,45.895 C31.9259976,45.3769974 31.688,44.7400038 31.688,43.984 C31.688,43.2279962 31.9329975,42.5840027 32.423,42.052 C32.9130025,41.5199973 33.4939966,41.254 34.166,41.254 C34.8660035,41.254 35.4469977,41.5199973 35.909,42.052 C36.3710023,42.5840027 36.602,43.2279962 36.602,43.984 C36.602,44.7400038 36.3570024,45.3769974 35.867,45.895 C35.3769975,46.4130026 34.7960034,46.672 34.124,46.672 C33.4519966,46.672 32.8780024,46.4130026 32.402,45.895 Z" id="." fill="#E5261F" fill-rule="nonzero"></path>
            <path d="M26.8,46 L26.8,44.64 L22.72,44.24 C22.6575,41.83375 22.6438281,39.7692969 22.6408374,36.3681738 L22.64,33.16 L22.64,33.16 L30.08,17.96 L33.36,17.48 L33.36,16.12 L24,16.12 L24,17.48 L27.92,18 L21.76,31.52 L15.48,17.88 L19.44,17.48 L19.44,16.12 L5.56,16.12 L5.56,17.48 L7.76,17.68 L15.88,34.28 L15.8799964,34.7809475 L15.8799964,34.7809475 L15.8792128,37.0377259 C15.8763265,40.0734694 15.8628571,42.0085714 15.8,44.24 L11.76,44.64 L11.76,46 L26.8,46 Z" id="Y" fill="#E5261F" fill-rule="nonzero"></path>
        </g>
    </g>
</svg>