<?xml version="1.0" standalone="no"?><!DOCTYPE svg PUBLIC "-//W3C//DTD SVG 1.1//EN" "http://www.w3.org/Graphics/SVG/1.1/DTD/svg11.dtd"><svg t="1623908491191" class="icon" viewBox="0 0 1024 1024" version="1.1" xmlns="http://www.w3.org/2000/svg" p-id="4503" xmlns:xlink="http://www.w3.org/1999/xlink" width="200" height="200"><defs><style type="text/css"></style></defs><path d="M629.76 477.44a42.666667 42.666667 0 0 0-42.666667 46.506667h87.893334a42.666667 42.666667 0 0 0-45.226667-46.506667zM404.906667 524.8H352.426667v82.773333h42.666666c42.666667 0 61.44-14.08 61.44-42.666666s-19.626667-40.106667-51.626666-40.106667zM442.026667 448.853333c0-22.613333-14.933333-36.266667-40.533334-36.266666H352.426667v74.24h36.266666c37.973333 0 53.333333-13.653333 53.333334-37.973334z" p-id="4504" fill="#ffffff"></path><path d="M512 85.333333a426.666667 426.666667 0 1 0 426.666667 426.666667A426.666667 426.666667 0 0 0 512 85.333333zM413.866667 648.533333H298.666667V371.2h115.2c49.92 0 82.773333 26.026667 82.773333 68.266667a59.733333 59.733333 0 0 1-47.786667 61.013333A64.853333 64.853333 0 0 1 512 570.453333c0 49.493333-42.666667 78.08-98.133333 78.08z m151.466666-256h128v21.333334h-128zM725.333333 556.8h-140.8v5.973333a45.653333 45.653333 0 0 0 46.506667 50.773334 38.4 38.4 0 0 0 42.666667-26.88H725.333333a85.333333 85.333333 0 0 1-92.586666 66.133333 91.733333 91.733333 0 0 1-100.693334-98.133333v-18.773334a90.026667 90.026667 0 0 1 97.28-96A90.453333 90.453333 0 0 1 725.333333 536.746667z" p-id="4505" fill="#ffffff"></path></svg>