<?xml version="1.0" standalone="no"?><!DOCTYPE svg PUBLIC "-//W3C//DTD SVG 1.1//EN" "http://www.w3.org/Graphics/SVG/1.1/DTD/svg11.dtd"><svg t="1623908514003" class="icon" viewBox="0 0 1024 1024" version="1.1" xmlns="http://www.w3.org/2000/svg" p-id="5393" xmlns:xlink="http://www.w3.org/1999/xlink" width="200" height="200"><defs><style type="text/css"></style></defs><path d="M512 0C228.8 0 0 228.8 0 512s228.8 512 512 512 512-228.8 512-512S795.2 0 512 0z m0 816c-168 0-304-136-304-304s136-304 304-304 304 136 304 304-136 304-304 304z m59.2-366.4c8 14.4 14.4 32 22.4 48 22.4-3.2 44.8-4.8 67.2-4.8 38.4 0 75.2 4.8 108.8 16-1.6-59.2-22.4-115.2-56-158.4-1.6 0-38.4 56-142.4 99.2z m110.4-129.6c-44.8-41.6-105.6-65.6-169.6-65.6-20.8 0-41.6 3.2-59.2 8 0 0 46.4 54.4 96 145.6 49.6-19.2 99.2-48 132.8-88z m-187.2 105.6c-48-88-92.8-145.6-92.8-145.6-70.4 35.2-123.2 99.2-140.8 177.6 0 0 115.2 1.6 233.6-32z m43.2 86.4c-6.4-14.4-14.4-28.8-19.2-41.6-65.6 20.8-152 35.2-262.4 35.2v6.4c0 65.6 25.6 126.4 65.6 171.2 48-80 124.8-142.4 216-171.2zM356.8 715.2c43.2 32 96 52.8 155.2 52.8 35.2 0 68.8-6.4 99.2-19.2-9.6-68.8-30.4-134.4-54.4-193.6-86.4 25.6-156.8 83.2-200 160z m252.8-172.8c19.2 56 36.8 116.8 44.8 182.4 56-38.4 97.6-99.2 110.4-168-33.6-11.2-68.8-16-105.6-16-17.6-1.6-33.6 0-49.6 1.6z" p-id="5394" fill="#ffffff"></path></svg>