<?xml version="1.0" standalone="no"?><!DOCTYPE svg PUBLIC "-//W3C//DTD SVG 1.1//EN" "http://www.w3.org/Graphics/SVG/1.1/DTD/svg11.dtd"><svg t="1623920706066" class="icon" viewBox="0 0 1024 1024" version="1.1" xmlns="http://www.w3.org/2000/svg" p-id="4955" xmlns:xlink="http://www.w3.org/1999/xlink" width="200" height="200"><defs><style type="text/css"></style></defs><path d="M756.342188 874.610649c-4.452074-26.356279-27.758683-154.709579-85.123659-312.268486 141.175274-22.572016 263.473753 16.138769 272.511463 19.099399-19.455564 121.831011-89.241828 226.899963-187.387804 293.169087z m-244.329833 74.661285c-105.848065 0-202.903283-37.620027-278.588545-100.238451 5.787696 4.674678 9.816824 7.635307 9.816824 7.635307s83.810297-182.757647 343.14362-273.134753c0.957196-0.356166 1.981173-0.60103 2.938369-0.890415 61.549926 159.829465 86.882229 293.725597 93.382257 331.946654-52.423174 22.260371-110.188837 34.681658-170.692525 34.681658zM74.729624 511.966943c0-4.652418 0.222604-9.215794 0.356166-13.80143 7.76887 0.178083 223.783511 5.075365 448.924905-62.306779 12.510329 24.486408 24.486408 49.484805 35.460771 74.34964-5.787696 1.558226-11.508612 3.316795-17.229527 5.253448-235.959934 76.19725-355.653949 288.49441-355.65395 288.494409s0.178083 0.155823 0.178083 0.222604A435.546421 435.546421 0 0 1 74.729624 511.989204z m250.6963-395.344191c5.854478 7.746609 86.704146 117.378937 162.389407 251.876099-209.93756 55.80675-392.205479 53.580713-403.69183 53.402631 28.359713-135.454358 119.315589-247.73567 241.302423-305.27873z m81.829124-29.161086c0 0.066781-0.066781 0.133562-0.066781 0.133562l-1.335622 0.222604c0.489728-0.111302 0.912675-0.155823 1.402403-0.333906z m393.518841 96.454188c-1.068498 1.625007-63.330756 96.454188-228.413668 158.271239-74.728066-137.324229-156.846575-246.422308-163.413385-255.081593A437.28273 437.28273 0 0 1 511.990094 74.795515c110.678565 0 211.762911 41.292988 288.761534 109.142599z m148.365373 323.710317c-6.321945-1.380143-154.308893-33.234734-304.521877-14.335679-3.138712-7.457224-6.232904-14.98123-9.460657-22.505235a1314.096489 1314.096489 0 0 0-29.094305-63.442058c172.673699-70.520856 242.771608-171.850065 243.617501-173.029865a435.501901 435.501901 0 0 1 99.459338 273.312837z m64.488296-98.680225a513.769366 513.769366 0 0 0-29.917939-96.253845 505.889194 505.889194 0 0 0-47.214247-86.926749 511.676891 511.676891 0 0 0-138.236905-138.236905 510.43031 510.43031 0 0 0-86.94901-47.258768A512.990253 512.990253 0 0 0 512.012355 0.000668a513.724845 513.724845 0 0 0-199.341624 40.291272A513.279637 513.279637 0 0 0 87.484817 225.743091 509.384072 509.384072 0 0 0 0.001558 511.966943a506.868651 506.868651 0 0 0 40.291272 199.319363 506.979952 506.979952 0 0 0 47.191987 87.038052 521.84988 521.84988 0 0 0 62.440341 75.752042 512.990253 512.990253 0 0 0 162.745573 109.632328c30.941916 13.133619 63.330756 23.106265 96.209324 29.784377 33.724462 6.989757 68.40612 10.484635 103.1323 10.484635 34.681658 0 69.363316-3.494878 103.065518-10.462375 32.900829-6.678111 65.289669-16.695278 96.231584-29.828897a510.140925 510.140925 0 0 0 86.94901-47.191987 519.846447 519.846447 0 0 0 75.796564-62.418081 517.954315 517.954315 0 0 0 62.440341-75.729782 511.231683 511.231683 0 0 0 77.132186-183.202854 518.021096 518.021096 0 0 0 0-206.197818z" fill="#ffffff" p-id="4956"></path></svg>