<?xml version="1.0" standalone="no"?><!DOCTYPE svg PUBLIC "-//W3C//DTD SVG 1.1//EN" "http://www.w3.org/Graphics/SVG/1.1/DTD/svg11.dtd"><svg t="1623908988143" class="icon" viewBox="0 0 1024 1024" version="1.1" xmlns="http://www.w3.org/2000/svg" p-id="6677" xmlns:xlink="http://www.w3.org/1999/xlink" width="200" height="200"><defs><style type="text/css"></style></defs><path d="M512 0C229.12 0 0 229.12 0 512s229.12 512 512 512 512-229.12 512-512-229.12-512-512-512z m251.456 350.72l-84.032 396.032c-6.208 28.032-22.912 34.88-46.208 21.632l-128-94.336-61.76 59.52c-6.784 6.784-12.608 12.544-25.792 12.544l9.088-130.24 237.184-214.336c10.304-9.088-2.24-14.208-15.872-5.12l-293.12 184.512-126.4-39.424c-27.52-8.64-28.096-27.456 5.76-40.64l493.632-190.336c22.912-8.32 42.944 5.568 35.52 40.256z" fill="#ffffff" p-id="6678"></path></svg>