<?xml version="1.0" standalone="no"?><!DOCTYPE svg PUBLIC "-//W3C//DTD SVG 1.1//EN" "http://www.w3.org/Graphics/SVG/1.1/DTD/svg11.dtd"><svg t="1623908168287" class="icon" viewBox="0 0 1024 1024" version="1.1" xmlns="http://www.w3.org/2000/svg" p-id="2828" xmlns:xlink="http://www.w3.org/1999/xlink" width="200" height="200"><defs><style type="text/css"></style></defs><path d="M899.072 213.88400001l-327.936-188.16c-34.944-18.816-88.704-18.816-123.648 0L122.24 213.88400001c-34.944 18.816-61.824 67.2-61.824 107.51999999v376.32000001c0 40.32 26.88 86.016 61.824 107.51999999l327.936 188.16000001c34.944 18.816 88.704 18.816 123.648 0l327.936-188.16000001c34.944-18.816 61.824-67.2 61.824-107.51999999v-376.32000001c-2.688-40.32-29.568-88.704-64.512-107.51999999z m-282.24 295.68c0 120.96-96.768 217.728-217.728 217.728s-217.728-96.768-217.728-217.728v-166.656c0-29.568 24.192-51.072 51.072-51.072s51.072 24.192 51.072 51.072v166.656c0 64.512 51.072 115.584 115.584 115.584s115.584-51.072 115.584-115.584v-166.656c0-29.568 24.192-51.072 51.072-51.072 29.568 0 51.072 24.192 51.072 51.072v166.656z m223.104 166.65599999c0 29.568-24.192 51.072-51.072 51.07200001-29.568 0-51.072-24.192-51.072-51.07200001V342.90800001c0-29.568 24.192-51.072 51.072-51.072 29.568 0 51.072 24.192 51.072 51.072v333.31199999z" fill="#ffffff" p-id="2829"></path></svg>