<?xml version="1.0" encoding="UTF-8"?>
<svg width="32px" height="32px" viewBox="0 0 32 32" version="1.1" xmlns="http://www.w3.org/2000/svg" xmlns:xlink="http://www.w3.org/1999/xlink">
    <title>favicon-32x32</title>
    <g id="页面-1" stroke="none" stroke-width="1" fill="none" fill-rule="evenodd">
        <g id="favicon-32x32" fill-rule="nonzero">
            <rect id="Rectangle" fill="#E5261F" x="0" y="0" width="32" height="32" rx="3"></rect>
            <path d="M21.2168675,26 L21.2168675,25.0896921 L18.4859438,24.8219545 C18.4441098,23.2113454 18.4349586,21.829516 18.4329568,19.5529945 L18.4323963,17.4056225 L18.4323963,17.4056225 L23.4123159,7.23159304 L25.6077644,6.9103079 L25.6077644,6 L19.3427041,6 L19.3427041,6.9103079 L21.9665328,7.2583668 L17.8433735,16.3078983 L13.6398929,7.17804552 L16.2904953,6.9103079 L16.2904953,6 L7,6 L7,6.9103079 L8.47255689,7.04417671 L13.9076305,18.1552878 L13.9076281,18.4905941 L13.9076281,18.4905941 L13.9071036,20.0011553 C13.9051717,22.033112 13.8961561,23.3283611 13.854083,24.8219545 L11.1499331,25.0896921 L11.1499331,26 L21.2168675,26 Z" id="Y" fill="#FFFFFF"></path>
        </g>
    </g>
</svg>